<?xml version="1.0" encoding="utf-8"?>
<!-- Generator: Adobe Illustrator 20.0.0, SVG Export Plug-In . SVG Version: 6.00 Build 0)  -->
<svg version="1.1" id="Layer_1" xmlns="http://www.w3.org/2000/svg" xmlns:xlink="http://www.w3.org/1999/xlink" x="0px" y="0px"
	 viewBox="0 0 56.7 56.7" style="enable-background:new 0 0 56.7 56.7;" xml:space="preserve">
<style type="text/css">
	.st0{fill:#999999;}
</style>
<path class="st0" d="M30.8,52.5c-1,0-1.8-0.7-2-1.6l-7.7-34.6l-4.6,18c-0.2,0.9-1.1,1.6-2,1.6H5.8c-1.1,0-2.1-0.9-2.1-2.1
	c0-1.1,0.9-2.1,2.1-2.1h7.1l6.4-24.9c0.2-0.9,1.1-1.6,2-1.6c1,0,1.8,0.7,2,1.6l7.4,33.5l3.8-19c0.2-0.9,0.9-1.5,1.8-1.6
	c0.9-0.1,1.7,0.4,2.1,1.2l4.6,9.5h8c1.1,0,2.1,0.9,2.1,2.1c0,1.1-0.9,2.1-2.1,2.1h-9.3c-0.8,0-1.5-0.5-1.9-1.2l-2.4-5.1l-4.5,22.6
	C32.6,51.8,31.8,52.5,30.8,52.5C30.8,52.5,30.8,52.5,30.8,52.5L30.8,52.5z"/>
</svg>
