<?xml version="1.0" encoding="utf-8"?>
<!-- Generator: Adobe Illustrator 20.0.0, SVG Export Plug-In . SVG Version: 6.00 Build 0)  -->
<svg version="1.1" id="Layer_1" xmlns="http://www.w3.org/2000/svg" xmlns:xlink="http://www.w3.org/1999/xlink" x="0px" y="0px"
	 viewBox="0 0 280 281" style="enable-background:new 0 0 280 281;" xml:space="preserve">
<style type="text/css">
	.st0{fill:#404041;}
</style>
<g>
	<g>
		<path class="st0" d="M248.5,161.3L234,152c0.7-6.2,0.8-12.3,0.3-18.2l15.1-9.2c6.1-3.8,8.6-11.3,6-18l-7.9-19.9
			c-2.7-6.7-9.7-10.4-16.8-8.9l-16.8,3.7c-3.8-4.7-8-9.1-12.6-13.1l4.2-17.2c1.7-7-1.9-14.1-8.5-16.9l-19.5-8.4
			c-6.6-2.8-14.2-0.5-18.1,5.6l-9.2,14.6c-6.2-0.7-12.3-0.8-18.2-0.3l-9.2-15.1c-3.8-6.1-11.3-8.7-18-6l-19.9,7.9
			c-6.7,2.7-10.4,9.7-8.9,16.8l3.6,16.8c-5,3.9-9.5,8.3-13.6,13.1l-17-4.1c-7-1.7-14.1,1.9-16.9,8.5l-8.4,19.5
			c-2.8,6.6-0.5,14.2,5.6,18.1l14.7,9.5c-0.7,6-0.7,12.1-0.2,18.3l-15,9.1c-5.9,3.6-8.5,11-6.2,17.5c0,0.1,0.1,0.2,0.1,0.3l7.9,19.9
			c2.7,6.7,9.7,10.4,16.8,8.9l17.1-3.7c3.9,4.8,8.1,9.2,12.8,13.1l-4.1,17c-1.7,7,1.9,14.1,8.5,16.9l19.5,8.4
			c6.6,2.8,14.2,0.5,18.1-5.6l9.5-14.7c6,0.7,12.1,0.7,18.3,0.2l9.1,14.9c2.8,4.5,7.5,7,12.5,7c1.8,0,3.7-0.3,5.5-1.1l19.9-7.9
			c6.7-2.7,10.4-9.7,8.9-16.8l-3.7-17.1c4.6-3.7,8.8-7.8,12.6-12.3l17.2,4.2c7,1.7,14.1-1.9,16.9-8.5l8.4-19.5
			C256.8,172.8,254.5,165.2,248.5,161.3z M242.1,174.3l-8.4,19.5c-0.3,0.7-1.1,1.1-1.9,0.9l-21.1-5.1c-2.5-0.6-5.1,0.3-6.7,2.3
			c-4.7,6-10.1,11.3-16.1,15.7c-2.1,1.5-3.1,4.1-2.5,6.6l4.6,21.1c0.2,0.8-0.2,1.6-1,2l-19.9,7.9c-0.7,0.3-1.7,0-2.1-0.7l-11.2-18.4
			c-1.2-2-3.3-3.1-5.6-3.1c-0.3,0-0.6,0-0.8,0.1c-7.8,1-15.6,0.9-23.1-0.3c-2.5-0.4-5.1,0.7-6.5,2.9l-11.7,18.2
			c-0.5,0.7-1.3,1-2.1,0.7l-19.5-8.4c-0.7-0.3-1.1-1.1-0.9-1.9l5.1-21c0.6-2.5-0.3-5.1-2.4-6.7c-6-4.6-11.5-10.2-16.1-16.5
			c-1.5-2.1-4.1-3-6.6-2.5l-21.1,4.6c-0.8,0.2-1.6-0.2-2-1l-7.9-19.6c-0.2-0.8,0.1-1.8,0.8-2.1l18.4-11.2c2.2-1.3,3.4-3.8,3.1-6.4
			c-1-7.8-0.9-15.6,0.3-23.1c0.4-2.5-0.7-5.1-2.9-6.5l-18.2-11.7c-0.7-0.5-1-1.3-0.7-2.1L43.8,89c0.3-0.7,1.1-1.1,1.9-0.9l21,5.1
			c2.5,0.6,5.1-0.3,6.7-2.4c4.8-6.3,10.5-11.8,16.9-16.3c2.1-1.5,3.2-4.1,2.6-6.7l-4.5-20.9c-0.2-0.8,0.2-1.6,1-2l19.9-7.9
			c0.8-0.3,1.7,0,2.1,0.7l11.4,18.6c1.3,2.2,3.8,3.4,6.4,3.1c7.4-0.9,15.1-0.8,23.1,0.4c2.6,0.4,5.1-0.8,6.5-3l11.4-18.1
			c0.5-0.7,1.3-1,2.1-0.7l19.5,8.4c0.7,0.3,1.1,1.1,0.9,1.9l-5.1,21.1c-0.6,2.5,0.3,5.1,2.3,6.7c6.1,4.8,11.5,10.4,16,16.6
			c1.5,2.1,4.1,3.1,6.7,2.6l20.9-4.5c0.8-0.2,1.6,0.2,2,1l7.9,19.9c0.3,0.7,0,1.7-0.7,2.1l-18.7,11c-2.2,1.3-3.4,3.8-3.1,6.4
			c0.9,7.4,0.8,15.1-0.4,23.1c-0.4,2.5,0.8,5.1,2.9,6.5l18,11.6C242.1,172.7,242.4,173.6,242.1,174.3z"/>
		<path class="st0" d="M139.6,99c-23.2-0.4-42.3,18.2-42.7,41.4s18.2,42.3,41.4,42.7c0.2,0,0.4,0,0.7,0c11,0,21.3-4.2,29.2-11.9
			c8.1-7.8,12.6-18.3,12.8-29.5C181.4,118.5,162.8,99.3,139.6,99z M159.2,161.8c-5.6,5.4-12.9,8.3-20.7,8.2
			c-16-0.2-28.8-13.5-28.6-29.5c0.2-15.9,13.2-28.6,29-28.6c0.1,0,0.3,0,0.5,0c16,0.2,28.8,13.5,28.6,29.5
			C167.9,149.2,164.8,156.4,159.2,161.8z"/>
	</g>
</g>
</svg>
