<?xml version="1.0" encoding="utf-8"?>
<!-- Generator: Adobe Illustrator 16.0.0, SVG Export Plug-In . SVG Version: 6.00 Build 0)  -->
<!DOCTYPE svg PUBLIC "-//W3C//DTD SVG 1.1//EN" "http://www.w3.org/Graphics/SVG/1.1/DTD/svg11.dtd">
<svg version="1.1" id="arrow_left" xmlns="http://www.w3.org/2000/svg" xmlns:xlink="http://www.w3.org/1999/xlink" x="0px" y="0px"
	 width="80px" height="64.567px" viewBox="8 15.716 80 64.567" enable-background="new 8 15.716 80 64.567" xml:space="preserve">
<path fill="#999999" d="M84,44H21.656l21.456-21.456c1.562-1.562,1.562-4.095,0.001-5.657c-1.562-1.562-4.096-1.562-5.658,0
	L9.172,45.171l0,0c-0.186,0.186-0.352,0.391-0.498,0.61c-0.067,0.101-0.114,0.21-0.171,0.315c-0.067,0.124-0.142,0.242-0.196,0.373
	c-0.056,0.135-0.088,0.276-0.129,0.416c-0.032,0.111-0.075,0.217-0.098,0.331C8.028,47.475,8,47.737,8,48l0,0
	c0,0.003,0.001,0.005,0.001,0.008c0,0.259,0.027,0.52,0.078,0.774c0.024,0.12,0.069,0.231,0.104,0.349
	c0.039,0.133,0.07,0.268,0.123,0.396c0.058,0.14,0.136,0.266,0.208,0.396c0.054,0.098,0.096,0.198,0.159,0.292
	c0.147,0.222,0.314,0.427,0.501,0.614l28.282,28.281c1.562,1.562,4.095,1.562,5.657,0s1.562-4.096,0-5.657L21.657,52H84
	c2.209,0,4-1.791,4-4S86.209,44,84,44z"/>
</svg>
