<?xml version="1.0" encoding="utf-8"?>
<!-- Generator: Adobe Illustrator 20.0.0, SVG Export Plug-In . SVG Version: 6.00 Build 0)  -->
<svg version="1.1" id="Слой_1" xmlns="http://www.w3.org/2000/svg" xmlns:xlink="http://www.w3.org/1999/xlink" x="0px" y="0px"
	 viewBox="0 0 32 32" style="enable-background:new 0 0 32 32;" xml:space="preserve">
<style type="text/css">
	.st0{fill:#999999;stroke:#999999;stroke-width:0.75;stroke-miterlimit:10;}
</style>
<g id="Grid">
	<path class="st0" d="M12.2,0.9H2.8c-1,0-1.9,0.8-1.9,1.9v9.4c0,1,0.8,1.9,1.9,1.9h9.4c1,0,1.9-0.8,1.9-1.9V2.8
		C14.1,1.8,13.3,0.9,12.2,0.9z M12.2,12.2H2.8V2.8h9.4V12.2z"/>
	<path class="st0" d="M29.2,0.9h-9.4c-1,0-1.9,0.8-1.9,1.9v9.4c0,1,0.8,1.9,1.9,1.9h9.4c1,0,1.9-0.8,1.9-1.9V2.8
		C31.1,1.8,30.2,0.9,29.2,0.9z M29.2,12.2h-9.4V2.8h9.4V12.2z"/>
	<path class="st0" d="M29.2,17.9h-9.4c-1,0-1.9,0.8-1.9,1.9v9.4c0,1,0.8,1.9,1.9,1.9h9.4c1,0,1.9-0.8,1.9-1.9v-9.4
		C31.1,18.7,30.2,17.9,29.2,17.9z M29.2,29.2h-9.4v-9.4h9.4V29.2z"/>
	<path class="st0" d="M12.2,17.9H2.8c-1,0-1.9,0.8-1.9,1.9v9.4c0,1,0.8,1.9,1.9,1.9h9.4c1,0,1.9-0.8,1.9-1.9v-9.4
		C14.1,18.7,13.3,17.9,12.2,17.9z M12.2,29.2H2.8v-9.4h9.4V29.2z"/>
</g>
</svg>
