<?xml version="1.0" encoding="utf-8"?>
<!-- Generator: Adobe Illustrator 16.0.0, SVG Export Plug-In . SVG Version: 6.00 Build 0)  -->
<!DOCTYPE svg PUBLIC "-//W3C//DTD SVG 1.1//EN" "http://www.w3.org/Graphics/SVG/1.1/DTD/svg11.dtd">
<svg version="1.1" id="clock" xmlns="http://www.w3.org/2000/svg" xmlns:xlink="http://www.w3.org/1999/xlink" x="0px" y="0px"
	 width="96px" height="96px" viewBox="0 0 96 96" enable-background="new 0 0 96 96" xml:space="preserve">
<path fill="#959595" d="M48,4C23.7,4,4,23.7,4,48c0,24.301,19.7,44,44,44c24.301,0,44-19.699,44-44C92,23.7,72.301,4,48,4z M48,84
	c-19.882,0-36-16.118-36-36s16.118-36,36-36s36,16.118,36,36S67.882,84,48,84z"/>
<path fill="#959595" d="M52,46.343V24c0-2.209-1.791-4-4-4s-4,1.791-4,4v24c0,0.009,0.003,0.018,0.003,0.027
	c0.001,0.253,0.026,0.506,0.076,0.755c0.024,0.123,0.069,0.233,0.104,0.354c0.039,0.132,0.069,0.267,0.122,0.396
	c0.058,0.138,0.136,0.264,0.208,0.394c0.054,0.101,0.097,0.2,0.16,0.295c0.147,0.222,0.314,0.429,0.501,0.613l11.311,11.312
	c1.562,1.562,4.098,1.562,5.658,0c1.562-1.562,1.562-4.097,0-5.655L52,46.343z"/>
</svg>
