<?xml version="1.0" encoding="utf-8"?>
<!-- Generator: Adobe Illustrator 20.0.0, SVG Export Plug-In . SVG Version: 6.00 Build 0)  -->
<svg version="1.1" id="Layer_1" xmlns="http://www.w3.org/2000/svg" xmlns:xlink="http://www.w3.org/1999/xlink" x="0px" y="0px"
	 viewBox="0 0 48 48" style="enable-background:new 0 0 48 48;" xml:space="preserve">
<style type="text/css">
	.st0{fill:#999999;stroke:#999999;stroke-width:1.5;stroke-miterlimit:10;}
</style>
<g>
	<g>
		<path class="st0" d="M9.9,47.1H4.7c-2,0-3.7-1.7-3.7-3.7V4.7c0-2.1,1.7-3.7,3.7-3.7h5.2c2,0,3.7,1.7,3.7,3.7v38.7
			C13.6,45.4,12,47.1,9.9,47.1z M4.7,2.9c-1,0-1.7,0.8-1.7,1.8v38.7c0,1,0.8,1.8,1.7,1.8h5.2c1,0,1.7-0.8,1.7-1.8V4.7
			c0-1-0.8-1.8-1.7-1.8C9.9,2.9,4.7,2.9,4.7,2.9z"/>
	</g>
</g>
<g>
	<g>
		<path class="st0" d="M26.4,32.3h-5.2c-2,0-3.7-1.7-3.7-3.7V4.7c0-2.1,1.7-3.7,3.7-3.7h5.2c2,0,3.7,1.7,3.7,3.7v23.9
			C30.1,30.7,28.5,32.3,26.4,32.3z M21.2,2.9c-1,0-1.7,0.8-1.7,1.8v23.9c0,1,0.8,1.8,1.7,1.8h5.2c1,0,1.7-0.8,1.7-1.8V4.7
			c0-1-0.8-1.8-1.7-1.8C26.4,2.9,21.2,2.9,21.2,2.9z"/>
	</g>
</g>
<g>
	<g>
		<path class="st0" d="M42.9,40.2h-5.2c-2,0-3.7-1.7-3.7-3.7V4.7c0-2.1,1.7-3.7,3.7-3.7h5.2c2,0,3.7,1.7,3.7,3.7v31.8
			C46.6,38.5,45,40.2,42.9,40.2z M37.7,2.9c-1,0-1.7,0.8-1.7,1.8v31.8c0,1,0.8,1.8,1.7,1.8h5.2c1,0,1.7-0.8,1.7-1.8V4.7
			c0-1-0.8-1.8-1.7-1.8C42.9,2.9,37.7,2.9,37.7,2.9z"/>
	</g>
</g>
</svg>
