<?xml version="1.0" encoding="utf-8"?>
<!-- Generator: Adobe Illustrator 16.0.0, SVG Export Plug-In . SVG Version: 6.00 Build 0)  -->
<!DOCTYPE svg PUBLIC "-//W3C//DTD SVG 1.1//EN" "http://www.w3.org/Graphics/SVG/1.1/DTD/svg11.dtd">
<svg version="1.1" id="Layer_1" xmlns="http://www.w3.org/2000/svg" xmlns:xlink="http://www.w3.org/1999/xlink" x="0px" y="0px"
	 width="280.483px" height="280.496px" viewBox="165.872 255.714 280.483 280.496"
	 enable-background="new 165.872 255.714 280.483 280.496" xml:space="preserve">
<g>
	<g>
		<path fill="#AAAAAA" d="M436.887,420.265l-17.332-11.116c0.837-7.411,0.956-14.702,0.358-21.755l18.05-10.997
			c7.291-4.542,10.279-13.507,7.172-21.516l-9.443-23.787c-3.228-8.009-11.595-12.432-20.081-10.639l-20.081,4.423
			c-4.543-5.618-9.562-10.877-15.062-15.659l5.021-20.559c2.032-8.367-2.271-16.854-10.16-20.201l-23.309-10.041
			c-7.889-3.347-16.974-0.598-21.635,6.694l-10.997,17.452c-7.411-0.837-14.703-0.957-21.755-0.359l-10.997-18.049
			c-4.542-7.292-13.507-10.399-21.516-7.172l-23.787,9.443c-8.008,3.227-12.431,11.594-10.638,20.081l4.303,20.082
			c-5.977,4.662-11.355,9.921-16.256,15.658l-20.32-4.9c-8.367-2.032-16.854,2.271-20.201,10.16l-10.041,23.309
			c-3.347,7.889-0.598,16.973,6.694,21.635l17.571,11.355c-0.836,7.172-0.836,14.464-0.239,21.874l-17.93,10.878
			c-7.053,4.303-10.16,13.148-7.411,20.918c0,0.119,0.12,0.239,0.12,0.358l9.443,23.787c3.228,8.008,11.595,12.431,20.081,10.638
			l20.44-4.423c4.662,5.738,9.682,10.997,15.3,15.659l-4.901,20.32c-2.032,8.367,2.271,16.854,10.16,20.2l23.309,10.041
			c7.889,3.347,16.973,0.598,21.635-6.693l11.355-17.571c7.172,0.837,14.463,0.837,21.874,0.239l10.878,17.81
			c3.347,5.379,8.965,8.367,14.941,8.367c2.151,0,4.423-0.358,6.574-1.314l23.786-9.443c8.009-3.228,12.432-11.595,10.639-20.081
			l-4.423-20.439c5.499-4.423,10.519-9.324,15.062-14.703l20.559,5.021c8.367,2.032,16.854-2.271,20.201-10.16l10.041-23.309
			C446.808,434.011,444.059,424.927,436.887,420.265z M429.236,435.804l-10.04,23.309c-0.358,0.837-1.315,1.315-2.271,1.076
			l-25.221-6.097c-2.988-0.717-6.097,0.359-8.009,2.75c-5.618,7.172-12.072,13.507-19.244,18.766
			c-2.511,1.793-3.706,4.901-2.988,7.89l5.498,25.221c0.239,0.956-0.239,1.913-1.195,2.391l-23.787,9.443
			c-0.836,0.358-2.031,0-2.51-0.837l-13.388-21.994c-1.435-2.391-3.944-3.705-6.693-3.705c-0.358,0-0.718,0-0.956,0.119
			c-9.324,1.195-18.647,1.076-27.612-0.358c-2.988-0.478-6.096,0.837-7.77,3.467l-13.985,21.755
			c-0.598,0.836-1.554,1.195-2.51,0.836l-23.309-10.04c-0.837-0.358-1.315-1.315-1.076-2.271l6.096-25.102
			c0.717-2.988-0.359-6.096-2.869-8.009c-7.172-5.498-13.746-12.191-19.244-19.723c-1.793-2.51-4.901-3.586-7.889-2.988
			l-25.221,5.499c-0.956,0.239-1.913-0.239-2.391-1.195l-9.443-23.429c-0.239-0.956,0.12-2.151,0.956-2.51l21.994-13.388
			c2.63-1.554,4.064-4.542,3.706-7.649c-1.195-9.324-1.076-18.647,0.359-27.612c0.478-2.988-0.837-6.096-3.467-7.77l-21.754-13.985
			c-0.837-0.598-1.195-1.554-0.837-2.51l10.041-23.309c0.359-0.837,1.315-1.315,2.271-1.076l25.102,6.096
			c2.988,0.717,6.096-0.359,8.008-2.869c5.738-7.53,12.551-14.104,20.201-19.483c2.51-1.793,3.825-4.901,3.108-8.009l-5.379-24.982
			c-0.239-0.956,0.239-1.913,1.195-2.391l23.787-9.443c0.957-0.358,2.032,0,2.51,0.837l13.626,22.232
			c1.554,2.63,4.542,4.064,7.65,3.706c8.845-1.076,18.049-0.956,27.611,0.478c3.108,0.479,6.097-0.956,7.77-3.586l13.627-21.635
			c0.598-0.837,1.554-1.195,2.51-0.837l23.309,10.041c0.837,0.359,1.315,1.315,1.076,2.271l-6.097,25.221
			c-0.717,2.988,0.359,6.096,2.75,8.009c7.291,5.737,13.746,12.431,19.125,19.842c1.793,2.51,4.9,3.705,8.008,3.107l24.982-5.379
			c0.956-0.239,1.912,0.239,2.391,1.195l9.443,23.787c0.358,0.836,0,2.032-0.837,2.51l-22.353,13.148
			c-2.63,1.554-4.064,4.542-3.705,7.65c1.075,8.845,0.956,18.049-0.479,27.611c-0.479,2.988,0.956,6.097,3.467,7.77l21.516,13.866
			C429.236,433.892,429.596,434.967,429.236,435.804z"/>
		<path fill="#AAAAAA" d="M306.717,345.797c-27.731-0.478-50.562,21.755-51.04,49.486s21.755,50.562,49.486,51.04
			c0.239,0,0.479,0,0.837,0c13.148,0,25.46-5.02,34.903-14.224c9.682-9.323,15.061-21.874,15.3-35.262
			C356.682,369.105,334.448,346.155,306.717,345.797z M330.146,420.862c-6.694,6.455-15.42,9.921-24.743,9.802
			c-19.125-0.239-34.425-16.137-34.186-35.262c0.239-19.005,15.778-34.186,34.664-34.186c0.12,0,0.359,0,0.598,0
			c19.125,0.239,34.425,16.137,34.186,35.262C340.545,405.802,336.839,414.408,330.146,420.862z"/>
	</g>
</g>
</svg>
