<?xml version="1.0" encoding="utf-8"?>
<!-- Generator: Adobe Illustrator 16.0.0, SVG Export Plug-In . SVG Version: 6.00 Build 0)  -->
<!DOCTYPE svg PUBLIC "-//W3C//DTD SVG 1.1//EN" "http://www.w3.org/Graphics/SVG/1.1/DTD/svg11.dtd">
<svg version="1.1" id="bell" xmlns="http://www.w3.org/2000/svg" xmlns:xlink="http://www.w3.org/1999/xlink" x="0px" y="0px"
	 width="96px" height="96px" viewBox="0 0 96 96" enable-background="new 0 0 96 96" xml:space="preserve">
<path fill="#AAAAAA" d="M96,76c-8-8-12-20-16-40C76.534,18.673,65.67,4,48,4S19.465,18.673,16,36C12,56,8,68,0,76h36.697
	C36.254,77.253,36,78.596,36,80c0,6.627,5.373,12,12,12s12-5.373,12-12c0-1.404-0.254-2.747-0.697-4H96z M23.845,37.568
	C25.044,31.57,30.332,12,48,12s22.956,19.571,24.154,25.569c2.48,12.399,5.031,22.342,8.824,30.431H15.021
	C18.815,59.911,21.365,49.967,23.845,37.568z M52,80c0,2.206-1.794,4-4,4s-4-1.794-4-4s1.794-4,4-4S52,77.794,52,80z"/>
</svg>
