<?xml version="1.0" encoding="utf-8"?>
<!-- Generator: Adobe Illustrator 16.0.0, SVG Export Plug-In . SVG Version: 6.00 Build 0)  -->
<!DOCTYPE svg PUBLIC "-//W3C//DTD SVG 1.1//EN" "http://www.w3.org/Graphics/SVG/1.1/DTD/svg11.dtd">
<svg version="1.1" id="share" xmlns="http://www.w3.org/2000/svg" xmlns:xlink="http://www.w3.org/1999/xlink" x="0px" y="0px"
	 width="96px" height="96px" viewBox="0 0 96 96" enable-background="new 0 0 96 96" xml:space="preserve">
<path fill="#ADADAD" d="M72,56c-4.812,0-9.12,2.137-12.055,5.501L39.643,51.35C39.873,50.27,40,49.148,40,48
	c0-1.149-0.127-2.269-0.357-3.349l20.302-10.152C62.879,37.864,67.188,40,72,40c8.836,0,16-7.164,16-16S80.836,8,72,8
	s-16,7.164-16,16c0,1.149,0.127,2.269,0.357,3.349L36.054,37.501C33.121,34.136,28.814,32,24,32c-8.836,0-16,7.164-16,16
	s7.164,16,16,16c4.814,0,9.12-2.137,12.054-5.501L56.357,68.65C56.127,69.73,56,70.852,56,72c0,8.836,7.164,16,16,16s16-7.164,16-16
	S80.836,56,72,56z M72,16c4.418,0,8,3.582,8,8s-3.582,8-8,8s-8-3.582-8-8S67.582,16,72,16z M24,56c-4.418,0-8-3.582-8-8s3.582-8,8-8
	s8,3.582,8,8S28.418,56,24,56z M72,80c-4.418,0-8-3.582-8-8s3.582-8,8-8s8,3.582,8,8S76.418,80,72,80z"/>
</svg>
