<?xml version="1.0" encoding="utf-8"?>
<!-- Generator: Adobe Illustrator 16.0.0, SVG Export Plug-In . SVG Version: 6.00 Build 0)  -->
<!DOCTYPE svg PUBLIC "-//W3C//DTD SVG 1.1//EN" "http://www.w3.org/Graphics/SVG/1.1/DTD/svg11.dtd">
<svg version="1.1" id="Layer_1" xmlns="http://www.w3.org/2000/svg" xmlns:xlink="http://www.w3.org/1999/xlink" x="0px" y="0px"
	 width="56.693px" height="56.693px" viewBox="0 0 56.693 56.693" enable-background="new 0 0 56.693 56.693" xml:space="preserve">
<path fill="#B7B7B7" d="M30.8,52.512c-0.969,0-1.809-0.673-2.02-1.621l-7.693-34.627l-4.621,18.049
	c-0.233,0.916-1.059,1.557-2.004,1.557H5.79c-1.145,0-2.069-0.926-2.069-2.07c0-1.143,0.926-2.067,2.069-2.067h7.064l6.37-24.882
	C19.46,5.922,20.3,5.25,21.261,5.293c0.959,0.017,1.778,0.688,1.987,1.621l7.443,33.496l3.799-19.035
	c0.174-0.873,0.889-1.537,1.771-1.647c0.887-0.115,1.735,0.352,2.122,1.153l4.562,9.476h7.955c1.145,0,2.07,0.926,2.07,2.069
	s-0.927,2.068-2.07,2.068h-9.256c-0.795,0-1.521-0.455-1.863-1.172l-2.443-5.07l-4.51,22.595c-0.19,0.961-1.026,1.653-2.008,1.665
	C30.817,52.512,30.81,52.512,30.8,52.512L30.8,52.512z"/>
</svg>
