<?xml version="1.0" encoding="utf-8"?>
<!-- Generator: Adobe Illustrator 16.0.0, SVG Export Plug-In . SVG Version: 6.00 Build 0)  -->
<!DOCTYPE svg PUBLIC "-//W3C//DTD SVG 1.1//EN" "http://www.w3.org/Graphics/SVG/1.1/DTD/svg11.dtd">
<svg version="1.1" id="Layer_1" xmlns="http://www.w3.org/2000/svg" xmlns:xlink="http://www.w3.org/1999/xlink" x="0px" y="0px"
	 width="1696.162px" height="1696.143px" viewBox="0 0 1696.162 1696.143" enable-background="new 0 0 1696.162 1696.143"
	 xml:space="preserve">
<g id="pen">
	<path fill="#ADADAD" d="M1648.016,305.367L1390.795,48.149C1359.747,17.098,1318.466,0,1274.555,0
		c-43.906,0-85.188,17.098-116.235,48.148L81.585,1124.866c-10.22,10.22-16.808,23.511-18.75,37.833L0.601,1621.186
		c-2.774,20.448,4.161,41.016,18.753,55.605c12.473,12.473,29.313,19.352,46.714,19.352c2.952,0,5.923-0.196,8.891-0.601
		l458.488-62.23c14.324-1.945,27.615-8.529,37.835-18.752L1648.016,537.844c31.049-31.048,48.146-72.33,48.146-116.236
		C1696.162,377.696,1679.064,336.415,1648.016,305.367z M493.598,1505.366l-350.381,47.558l47.56-350.376L953.78,439.557
		l302.817,302.819L493.598,1505.366z M1554.575,444.404l-204.536,204.533l-302.821-302.818l204.535-204.532
		c8.22-8.218,17.813-9.446,22.802-9.446s14.582,1.228,22.803,9.446l257.222,257.218c8.217,8.218,9.442,17.812,9.442,22.799
		C1564.021,426.591,1562.795,436.186,1554.575,444.404z"/>
</g>
<g id="Layer_1_1_">
</g>
</svg>
