<?xml version="1.0" encoding="utf-8"?>
<!-- Generator: Adobe Illustrator 16.0.0, SVG Export Plug-In . SVG Version: 6.00 Build 0)  -->
<!DOCTYPE svg PUBLIC "-//W3C//DTD SVG 1.1//EN" "http://www.w3.org/Graphics/SVG/1.1/DTD/svg11.dtd">
<svg version="1.1" id="Layer_1" xmlns="http://www.w3.org/2000/svg" xmlns:xlink="http://www.w3.org/1999/xlink" x="0px" y="0px"
	 width="96px" height="96px" viewBox="16 16 96 96" enable-background="new 16 16 96 96" xml:space="preserve">
<path fill="#B7B7B7" d="M106,58H70V22c0-3.313-2.686-6-6-6c-3.313,0-6,2.687-6,6v36H22c-3.313,0-6,2.687-6,6c0,3.312,2.687,6,6,6h36
	v36c0,3.312,2.687,6,6,6c3.312,0,6-2.688,6-6V70h36c3.312,0,6-2.688,6-6C112,60.687,109.312,58,106,58z"/>
</svg>
