<?xml version="1.0" encoding="utf-8"?>
<!-- Generator: Adobe Illustrator 20.0.0, SVG Export Plug-In . SVG Version: 6.00 Build 0)  -->
<svg version="1.1" id="Layer_1" xmlns="http://www.w3.org/2000/svg" xmlns:xlink="http://www.w3.org/1999/xlink" x="0px" y="0px"
	 viewBox="0 0 128 128" style="enable-background:new 0 0 128 128;" xml:space="preserve">
<style type="text/css">
	.st0{fill:#999999;}
</style>
<path class="st0" d="M106,58H70V22c0-3.3-2.7-6-6-6c-3.3,0-6,2.7-6,6v36H22c-3.3,0-6,2.7-6,6c0,3.3,2.7,6,6,6h36v36c0,3.3,2.7,6,6,6
	c3.3,0,6-2.7,6-6V70h36c3.3,0,6-2.7,6-6C112,60.7,109.3,58,106,58z"/>
</svg>
