<?xml version="1.0" encoding="utf-8"?>
<!-- Generator: Adobe Illustrator 20.0.0, SVG Export Plug-In . SVG Version: 6.00 Build 0)  -->
<svg version="1.1" id="magnifying_glass" xmlns="http://www.w3.org/2000/svg" xmlns:xlink="http://www.w3.org/1999/xlink" x="0px"
	 y="0px" viewBox="0 0 96 96" style="enable-background:new 0 0 96 96;" xml:space="preserve">
<style type="text/css">
	.st0{fill:#999999;}
</style>
<path id="_x3C_Path_x3E_" class="st0" d="M90.6,85L68.1,62.5c4.9-6.2,7.9-14,7.9-22.5C76,20.1,59.9,4,40,4S4,20.1,4,40
	s16.1,36,36,36c8.5,0,16.3-2.9,22.5-7.9L85,90.6c0.8,0.8,1.8,1.2,2.8,1.2c1,0,2.1-0.4,2.8-1.2C92.2,89.1,92.2,86.5,90.6,85z M40,68
	c-15.5,0-28-12.5-28-28s12.5-28,28-28s28,12.5,28,28S55.5,68,40,68z"/>
</svg>
