<?xml version="1.0" encoding="utf-8"?>
<!-- Generator: Adobe Illustrator 16.0.0, SVG Export Plug-In . SVG Version: 6.00 Build 0)  -->
<!DOCTYPE svg PUBLIC "-//W3C//DTD SVG 1.1//EN" "http://www.w3.org/Graphics/SVG/1.1/DTD/svg11.dtd">
<svg version="1.1" id="Capa_1" xmlns="http://www.w3.org/2000/svg" xmlns:xlink="http://www.w3.org/1999/xlink" x="0px" y="0px"
	 width="612px" height="792px" viewBox="0 0 612 792" enable-background="new 0 0 612 792" xml:space="preserve">
<g>
	<path id="Facebook" fill="#A4A4A4" d="M233.354,211.441c0,13.656,0,74.604,0,74.604h-54.658v91.227h54.658v271.093h112.278V377.279
		h75.344c0,0,7.056-43.741,10.477-91.569c-9.807,0-85.396,0-85.396,0s0-53.073,0-62.375c0-9.323,12.241-21.864,24.342-21.864
		c12.076,0,37.565,0,61.174,0c0-12.42,0-55.336,0-94.971c-31.516,0-67.372,0-83.177,0
		C230.578,106.494,233.354,197.811,233.354,211.441z"/>
</g>
</svg>
