<?xml version="1.0" encoding="utf-8"?>
<!-- Generator: Adobe Illustrator 16.0.0, SVG Export Plug-In . SVG Version: 6.00 Build 0)  -->
<!DOCTYPE svg PUBLIC "-//W3C//DTD SVG 1.1//EN" "http://www.w3.org/Graphics/SVG/1.1/DTD/svg11.dtd">
<svg version="1.1" id="Capa_1" xmlns="http://www.w3.org/2000/svg" xmlns:xlink="http://www.w3.org/1999/xlink" x="0px" y="0px"
	 width="612px" height="792px" viewBox="0 0 612 792" enable-background="new 0 0 612 792" xml:space="preserve">
<g>
	<path id="LinkedIn" fill="#A4A4A4" d="M565.013,453.043V644.56h-111.03V465.87c0-44.889-16.06-75.522-56.247-75.522
		c-30.68,0-48.938,20.645-56.969,40.616c-2.929,7.14-3.683,17.076-3.683,27.071V644.56H226.017c0,0,1.496-302.642,0-333.998h111.056
		v47.342c-0.225,0.354-0.518,0.736-0.729,1.08h0.729v-1.08c14.756-22.726,41.106-55.189,100.087-55.189
		C510.232,302.714,565.013,350.452,565.013,453.043z M109.836,149.558c-37.996,0-62.848,24.922-62.848,57.695
		c0,32.06,24.133,57.738,61.374,57.738h0.742c38.731,0,62.819-25.673,62.819-57.738C171.193,174.48,147.835,149.558,109.836,149.558
		z M53.585,644.56h111.024V310.562H53.585V644.56z"/>
</g>
</svg>
